<svg xmlns="http://www.w3.org/2000/svg" viewBox="0 0 512 512">
  <rect width="512" height="512" rx="112" fill="#111827" />
  <path
    d="M92 106h118c63 0 100 34 100 91 0 31-12 55-34 70 34 14 52 42 52 81 0 64-43 104-111 104H92V106Zm85 75v89h36c27 0 44-17 44-45 0-28-16-44-44-44h-36Zm0 159v97h47c31 0 49-18 49-49 0-31-18-48-49-48h-47Z"
    fill="#fff"
  />
  <path
    d="M308 106h78c68 0 112 36 112 92 0 34-16 58-46 72 36 13 56 40 56 79 0 65-46 103-124 103H308V106Zm84 72v68h28c23 0 36-13 36-34 0-21-13-34-36-34h-28Zm0 132v69h38c24 0 38-13 38-35 0-23-14-34-41-34h-35Z"
    fill="#d9f24a"
  />
</svg>
